# xmcd
#
# Track frame offsets:
# 150
# 25310
# 46971
# 69372
# 94520
# 119091
# 140457
# 162583
# 183208
#
# Disc length: 2705 seconds
#
#
# Revision: 2
# Processed by: cddbd v1.5.2PL0 Copyright (c) Steve Scherf et al.
# Submitted via: FreeRIP 2.945 
#
DISCID=780a8f09
DTITLE=Gerald Austin - Open Invitiation
DYEAR=1990
DGENRE=R&B
TTITLE0=Slow Motion
TTITLE1=Getting Back Into Love
TTITLE2=Don't You Know How I Feel
TTITLE3=I'll Go Crazy
TTITLE4=Never Give Up
TTITLE5=Tell Me This Night Won't End
TTITLE6=Open Invitation
TTITLE7=Still In Love
TTITLE8=Any Day Now
EXTD=
EXTT0=
EXTT1=
EXTT2=
EXTT3=
EXTT4=
EXTT5=
EXTT6=
EXTT7=
EXTT8=
PLAYORDER=
